<mxfile host="app.diagrams.net" agent="Mozilla/5.0 (Windows NT 10.0; Win64; x64) AppleWebKit/537.36 (KHTML, like Gecko) Chrome/131.0.0.0 Safari/537.36" version="25.0.3">
  <diagram name="第 1 页" id="CeJPTKoVwPZOsXdQENAC">
    <mxGraphModel dx="1434" dy="746" grid="1" gridSize="10" guides="1" tooltips="1" connect="1" arrows="1" fold="1" page="1" pageScale="1" pageWidth="827" pageHeight="1169" math="0" shadow="0">
      <root>
        <mxCell id="0" />
        <mxCell id="1" parent="0" />
        <mxCell id="vUY1Ih3Rio_7aqxSObcq-5" style="edgeStyle=orthogonalEdgeStyle;rounded=0;orthogonalLoop=1;jettySize=auto;html=1;entryX=0;entryY=0.5;entryDx=0;entryDy=0;" edge="1" parent="1" source="vUY1Ih3Rio_7aqxSObcq-1" target="vUY1Ih3Rio_7aqxSObcq-4">
          <mxGeometry relative="1" as="geometry" />
        </mxCell>
        <mxCell id="vUY1Ih3Rio_7aqxSObcq-1" value="" style="image;aspect=fixed;perimeter=ellipsePerimeter;html=1;align=center;shadow=0;dashed=0;fontColor=#4277BB;labelBackgroundColor=default;fontSize=12;spacingTop=3;image=img/lib/ibm/users/user.svg;" vertex="1" parent="1">
          <mxGeometry x="70" y="270" width="60" height="60" as="geometry" />
        </mxCell>
        <mxCell id="vUY1Ih3Rio_7aqxSObcq-2" value="用户" style="text;html=1;align=center;verticalAlign=middle;resizable=0;points=[];autosize=1;strokeColor=none;fillColor=none;" vertex="1" parent="1">
          <mxGeometry x="75" y="340" width="50" height="30" as="geometry" />
        </mxCell>
        <mxCell id="vUY1Ih3Rio_7aqxSObcq-3" value="1千UV以下" style="text;html=1;align=center;verticalAlign=middle;resizable=0;points=[];autosize=1;strokeColor=none;fillColor=none;fontStyle=1" vertex="1" parent="1">
          <mxGeometry x="20" y="198" width="80" height="30" as="geometry" />
        </mxCell>
        <mxCell id="vUY1Ih3Rio_7aqxSObcq-11" style="edgeStyle=orthogonalEdgeStyle;rounded=0;orthogonalLoop=1;jettySize=auto;html=1;entryX=0;entryY=0.5;entryDx=0;entryDy=0;" edge="1" parent="1" source="vUY1Ih3Rio_7aqxSObcq-4" target="vUY1Ih3Rio_7aqxSObcq-7">
          <mxGeometry relative="1" as="geometry" />
        </mxCell>
        <mxCell id="vUY1Ih3Rio_7aqxSObcq-18" style="edgeStyle=orthogonalEdgeStyle;rounded=0;orthogonalLoop=1;jettySize=auto;html=1;" edge="1" parent="1" source="vUY1Ih3Rio_7aqxSObcq-4" target="vUY1Ih3Rio_7aqxSObcq-14">
          <mxGeometry relative="1" as="geometry" />
        </mxCell>
        <mxCell id="vUY1Ih3Rio_7aqxSObcq-4" value="" style="image;aspect=fixed;perimeter=ellipsePerimeter;html=1;align=center;shadow=0;dashed=0;fontColor=#4277BB;labelBackgroundColor=default;fontSize=12;spacingTop=3;image=img/lib/ibm/users/browser.svg;" vertex="1" parent="1">
          <mxGeometry x="220" y="270" width="60" height="60" as="geometry" />
        </mxCell>
        <mxCell id="vUY1Ih3Rio_7aqxSObcq-6" value="电脑" style="text;html=1;align=center;verticalAlign=middle;resizable=0;points=[];autosize=1;strokeColor=none;fillColor=none;" vertex="1" parent="1">
          <mxGeometry x="225" y="340" width="50" height="30" as="geometry" />
        </mxCell>
        <mxCell id="vUY1Ih3Rio_7aqxSObcq-12" style="edgeStyle=orthogonalEdgeStyle;rounded=0;orthogonalLoop=1;jettySize=auto;html=1;entryX=0;entryY=0.5;entryDx=0;entryDy=0;" edge="1" parent="1" source="vUY1Ih3Rio_7aqxSObcq-7" target="vUY1Ih3Rio_7aqxSObcq-9">
          <mxGeometry relative="1" as="geometry" />
        </mxCell>
        <mxCell id="vUY1Ih3Rio_7aqxSObcq-7" value="" style="image;aspect=fixed;perimeter=ellipsePerimeter;html=1;align=center;shadow=0;dashed=0;fontColor=#4277BB;labelBackgroundColor=default;fontSize=12;spacingTop=3;image=img/lib/ibm/applications/app_server.svg;" vertex="1" parent="1">
          <mxGeometry x="390" y="270" width="60" height="60" as="geometry" />
        </mxCell>
        <mxCell id="vUY1Ih3Rio_7aqxSObcq-8" value="服务器" style="text;html=1;align=center;verticalAlign=middle;resizable=0;points=[];autosize=1;strokeColor=none;fillColor=none;" vertex="1" parent="1">
          <mxGeometry x="390" y="340" width="60" height="30" as="geometry" />
        </mxCell>
        <mxCell id="vUY1Ih3Rio_7aqxSObcq-9" value="" style="image;aspect=fixed;perimeter=ellipsePerimeter;html=1;align=center;shadow=0;dashed=0;fontColor=#4277BB;labelBackgroundColor=default;fontSize=12;spacingTop=3;image=img/lib/ibm/data/data_services.svg;" vertex="1" parent="1">
          <mxGeometry x="560" y="270" width="60" height="60" as="geometry" />
        </mxCell>
        <mxCell id="vUY1Ih3Rio_7aqxSObcq-10" value="数据库" style="text;html=1;align=center;verticalAlign=middle;resizable=0;points=[];autosize=1;strokeColor=none;fillColor=none;" vertex="1" parent="1">
          <mxGeometry x="560" y="338" width="60" height="30" as="geometry" />
        </mxCell>
        <mxCell id="vUY1Ih3Rio_7aqxSObcq-13" value="ECS服务器" style="fontStyle=0;verticalAlign=top;align=center;spacingTop=-2;fillColor=none;rounded=0;whiteSpace=wrap;html=1;strokeColor=#FF0000;strokeWidth=2;dashed=1;container=1;collapsible=0;expand=0;recursiveResize=0;" vertex="1" parent="1">
          <mxGeometry x="370" y="186" width="280" height="228" as="geometry" />
        </mxCell>
        <mxCell id="vUY1Ih3Rio_7aqxSObcq-14" value="" style="image;aspect=fixed;perimeter=ellipsePerimeter;html=1;align=center;shadow=0;dashed=0;fontColor=#4277BB;labelBackgroundColor=default;fontSize=12;spacingTop=3;image=img/lib/ibm/infrastructure/channels.svg;" vertex="1" parent="1">
          <mxGeometry x="220" y="100" width="60" height="60" as="geometry" />
        </mxCell>
        <mxCell id="vUY1Ih3Rio_7aqxSObcq-16" value="DNS服务" style="text;html=1;align=center;verticalAlign=middle;resizable=0;points=[];autosize=1;strokeColor=none;fillColor=none;" vertex="1" parent="1">
          <mxGeometry x="215" y="168" width="70" height="30" as="geometry" />
        </mxCell>
        <mxCell id="vUY1Ih3Rio_7aqxSObcq-19" value="单体应用架构" style="text;html=1;align=center;verticalAlign=middle;resizable=0;points=[];autosize=1;strokeColor=none;fillColor=none;fontSize=16;fontStyle=1" vertex="1" parent="1">
          <mxGeometry x="290" y="48" width="120" height="30" as="geometry" />
        </mxCell>
      </root>
    </mxGraphModel>
  </diagram>
</mxfile>
